# xmcd
#
# Track frame offsets: 
#        150
#        22134
#        41871
#        71011
#        77486
#        115789
#        127347
#        159347
#        182426
#        222435
#        253476
#        283865
#
# Disc length: 4370 seconds
#
# Revision: 5
# Processed by: cddbd v1.5.2PL0 Copyright (c) Steve Scherf et al.
# Submitted via: ExactAudioCopy v1.0b3
#
DISCID=b811100c
DTITLE=Frédéric Chopin - Collection Historique - Alfred Cortot
DYEAR=1931
DGENRE=Romantique
TTITLE0=Sonate p. P n° 2 en si b m op. 35 « Marche Funèbre » - 1. Grav
TTITLE0=e - Doppio Movimento (A. C. 1928-29-31)
TTITLE1=Sonate p. P n° 2 en si b m op. 35 « Marche Funèbre » - 2. Sche
TTITLE1=rzo - molto vivace (A. Cortot 1928-29-31)
TTITLE2=Sonate p. P n° 2 en si b m op. 35 « Marche Funèbre » - 3. Marc
TTITLE2=he Funèbre (Alfred Cortot 1928-29-31)
TTITLE3=Sonate pour piano n° 2 en si bémol mineur op. 35 « Marche Funè
TTITLE3=bre » - 4. Presto (Cortot 1928-29-31)
TTITLE4=Sonate pour piano n° 3 en si mineur op. 58 - Allegro maestoso 
TTITLE4=(Alfred Cortot 1928-1929-1931)
TTITLE5=Sonate pour piano n° 3 en si mineur op. 58 - Scherzo - molto v
TTITLE5=ivace (Alfred Cortot 1928-1929-1931)
TTITLE6=Sonate pour piano n° 3 en si mineur op. 58 - Largo (Alfred Cor
TTITLE6=tot 1928-1929-1931)
TTITLE7=Sonate pour piano n° 3 en si mineur op. 58 - Finale - presto n
TTITLE7=on tanto (Alfred Cortot 1928-1929-1931)
TTITLE8=Ballade n° 1 en sol mineur op. 23 (Alfred Cortot 1928-1929-193
TTITLE8=1)
TTITLE9=Ballade n° 2 en fa majeur op. 38 (Alfred Cortot 1928-1929-1931
TTITLE9=)
TTITLE10=Ballade n° 3 en la bémol majeur op. 47 (Alfred Cortot 1928-19
TTITLE10=29-1931)
TTITLE11=Ballade n° 4 en fa mineur op. 52 (Alfred Cortot 1928-1929-193
TTITLE11=1)
EXTD=
EXTT0=
EXTT1=
EXTT2=
EXTT3=
EXTT4=
EXTT5=
EXTT6=
EXTT7=
EXTT8=
EXTT9=
EXTT10=
EXTT11=
PLAYORDER=
